# xmcd CD database file
#
# Track frame offsets:
#	225
#	18724
#	33271
#	47463
#	62825
#	72938
#	88115
#	101785
#	115455
#	131191
#	146627
#	164541
#	176882
#	189200
#
# Disc length: 2681 seconds
#
# Revision: 1
# Processed by: cddbd v1.5.1PL2 Copyright (c) Steve Scherf et al.
# Submitted via: CDex 1.51
#
DISCID=d00a760e
DTITLE=Various Artist - Line Dance CD2
DYEAR=1900
DGENRE=Country
TTITLE0=I love the way you love me
TTITLE1=Thank ´God for you
TTITLE2=Why didn't I think of that
TTITLE3=I cross my heart
TTITLE4=Heartland
TTITLE5=I don't call him daddy
TTITLE6=Easy come, easy go
TTITLE7=Look heart no hands
TTITLE8=Forever and ever amen
TTITLE9=Can I trust you with my heart
TTITLE10=Help me hold on
TTITLE11=Live until I die
TTITLE12=What's it to you
TTITLE13=Born to boogie
EXTD=
EXTT0=
EXTT1=
EXTT2=
EXTT3=
EXTT4=
EXTT5=
EXTT6=
EXTT7=
EXTT8=
EXTT9=
EXTT10=
EXTT11=
EXTT12=
EXTT13=
PLAYORDER=
